<svg width="120" height="120" viewBox="0 0 120 120" fill="none" xmlns="http://www.w3.org/2000/svg">
<rect width="120" height="120" rx="24" fill="white" fill-opacity="0.1"/>
<rect x="0.5" y="0.5" width="119" height="119" rx="23.5" stroke="black" stroke-opacity="0.25"/>
<path d="M35 35.6597V14.612C35 12.4661 35 11.3932 35.6896 10.7951C36.3792 10.197 37.4414 10.3488 39.5657 10.6522L99.8485 19.2641C102.305 19.615 103.533 19.7904 104.266 20.6363C105 21.4822 105 22.7227 105 25.2038V94.7962C105 97.2773 105 98.5178 104.266 99.3637C103.533 100.21 102.305 100.385 99.8485 100.736L39.5657 109.348C37.4414 109.651 36.3792 109.803 35.6896 109.205C35 108.607 35 107.534 35 105.388V85.3298" stroke="#F2F2F7" stroke-width="2"/>
<path d="M80 60L80.7809 59.3753L81.2806 60L80.7809 60.6247L80 60ZM20 61C19.4477 61 19 60.5523 19 60C19 59.4477 19.4477 59 20 59V61ZM60.7809 34.3753L80.7809 59.3753L79.2191 60.6247L59.2191 35.6247L60.7809 34.3753ZM80.7809 60.6247L60.7809 85.6247L59.2191 84.3753L79.2191 59.3753L80.7809 60.6247ZM80 61H20V59H80V61Z" fill="#F2F2F7"/>
</svg>
